<?xml version="1.0" encoding="UTF-8"?>
<svg xmlns="http://www.w3.org/2000/svg" viewBox="653.9017 108.8882 189.4745 186.053" width="189.4745" height="186.053">
    <defs>
        <linearGradient gradientUnits="userSpaceOnUse" gradientTransform="matrix(1.00915 0 0 .99093 -1.361 -2.252)" id="63223852-b6db-4139-8569-a4c8f9216eec" x1="649.318" y1="112.158" x2="837.074" y2="112.158" spreadMethod="pad">
            <stop stop-color="#ea00f9" stop-opacity=".996" offset=".008"/>
            <stop stop-color="#8d00fe" stop-opacity=".996" offset="1"/>
        </linearGradient>
    </defs>
    <path fill="url(#63223852-b6db-4139-8569-a4c8f9216eec)" d="M669.853 146.214q-.589-.718.1-1.535 2.144-2.547 4.806-5.18c10.092-9.971 21.995-17.465 35.382-23.031 8.126-3.381 16.634-5.679 25.785-6.715 8.54-.964 16.976-1.205 25.399-.297q5.64.606 8.967 1.213 6.368 1.153 12.717 3.429c16.846 6.035 31.982 17.052 42.168 31.217q11.422 15.89 15.654 34.625c2.94 13.03 3.449 26.382.917 39.39q-.895 4.586-2.442 9.36-3.944 12.17-10.887 23.48c-6.808 11.098-14.952 19.753-25.565 27.195q-8.234 5.773-17.619 9.266-11.363 4.233-23.496 5.799-1.241.159-6.93.434c-4.938.237-9.943-.129-14.669-.331q-1.61-.069-3.665-.439-.14-.026-3.647-.542-5.203-.77-12.312-2.542-2.456-.615-3.576-1.033c-1.565-.59-3.089-.912-4.717-1.518q-13.71-5.102-24.045-13.125-6.336-4.92-12.825-12.255c-11.004-12.432-18.748-27.527-20.96-43.804-1.992-14.656 2.19-29.588 10.42-41.972q3.781-5.696 8.044-10.681 14.97-17.508 38.12-22.593 2.307-.508 10.01-1.501.999-.13 8.396-.245 5.36-.082 8.383.365c8.818 1.317 16.773 4.616 24.18 9.451q5.778 3.768 10.109 8.44 5.841 6.302 9.214 12.746 4.623 8.84 6.669 17.142 1.12 4.53 1.695 10.316c.176 1.755-1.745 2.12-2.577.662q-4.357-7.648-7.59-12.423-2.618-3.872-6.512-7.657c-6.858-6.668-17.016-10.56-26.833-10.823q-4.956-.134-6.467-.022-3.413.258-7.955 1.265c-5.005 1.11-9.619 3.063-13.886 6.087-10.19 7.227-16.495 17.99-17.453 30.09-.733 9.28 1.822 18.351 6.957 26.654 7.406 11.976 20.7 19.366 35.184 19.766q6.624.18 11.197-.426c12.42-1.643 24.729-8.595 32.702-17.83 1.614-1.867 2.896-3.764 4.64-6.212 5.78-8.104 9.237-17.542 10.73-27.217q.931-6.022.302-12.57-.913-9.442-3.67-17.09c-3.193-8.87-9.191-17.986-16.733-24.52-5.89-5.102-11.125-8.99-17.69-12.075q-6.885-3.24-14.868-5.205-4.096-1.007-8.27-1.235-6.821-.37-8.386-.296-6.228.3-11.562.425c-1.484.035-3.327.254-4.542.478q-4.973.908-11.741 2.693-10.37 2.731-16.378 5.403-6.898 3.067-14.61 6.844c-.693.34-2.14.96-3.368.899a.535.512 0 0 1-.4-.194z"/>
</svg>
