<svg xmlns="http://www.w3.org/2000/svg" viewBox="205 372 340 340">
  <g transform="translate(0,1080) scale(0.1,-0.1)" stroke="none">
    <g transform="translate(3362 5400) scale(0.8) translate(-3362 -5400)">
      <path fill="#ffffff" d="M2067 7429 c-136 -32 -246 -146 -276 -287 -16 -75 -16 -3409 0 -3484 26 -119 96 -208 209 -262 l65 -31 1729 -3 c1918 -3 1795 -7 1901 63 62 41 96 83 133 163 l27 57 3 1735 c3 1927 7 1789 -64 1896 -40 61 -82 95 -162 132 l-57 27 -1735 2 c-988 0 -1751 -3 -1773 -8z"/>
      <path fill="#e66446" fill-rule="evenodd" d="M2067 7429 c-136 -32 -246 -146 -276 -287 -16 -75 -16 -3409 0 -3484 26 -119 96 -208 209 -262 l65 -31 1729 -3 c1918 -3 1795 -7 1901 63 62 41 96 83 133 163 l27 57 3 1735 c3 1927 7 1789 -64 1896 -40 61 -82 95 -162 132 l-57 27 -1735 2 c-988 0 -1751 -3 -1773 -8z m2851 -1817 c-35 -35 -296 -293 -580 -574 l-518 -510 -580 572 -580 573 0 573 c0 316 3 574 8 574 4 0 264 -252 577 -560 314 -308 573 -560 576 -560 3 0 264 254 580 564 l574 564 3 -576 2 -576 -62 -64z m-1436 -973 c117 -121 214 -223 215 -227 2 -4 -98 -105 -220 -224 l-224 -216 -222 222 -223 223 224 221 c123 122 226 222 230 222 3 0 102 -99 220 -221z"/>
    </g>
  </g>
</svg>
