<svg xmlns="http://www.w3.org/2000/svg" fill="none" viewBox="0 0 400 400">
  <rect width="399" height="399" x=".5" y=".5" fill="#000" rx="96.5"/>
  <rect width="399" height="399" x=".5" y=".5" fill="url(#a)" fill-opacity=".35" rx="96.5"/>
  <rect width="399" height="399" x=".5" y=".5" stroke="#000" rx="96.5"/>
  <path fill="#fff" fill-rule="evenodd" d="M200.064 37.116c.513.033 1.02.181 1.48.444l69.698 39.756a3.4 3.4 0 0 1 .403.23l69.705 39.764a3.35 3.35 0 0 1 1.699 2.907 3.35 3.35 0 0 1-1.699 2.908l-69.904 39.874a3.43 3.43 0 0 1-3.599-.125l-67.994-38.785-66.513 37.939v75.886l66.496 37.932 67.948-38.76q.127-.09.265-.169a3.43 3.43 0 0 1 3.397 0l69.904 39.874a3.35 3.35 0 0 1 1.699 2.908 3.35 3.35 0 0 1-1.699 2.907l-69.637 39.722q-.128.092-.267.173a3 3 0 0 1-.284.142l-69.618 39.713a3.43 3.43 0 0 1-3.831-.294l-68.857-39.278a3.4 3.4 0 0 1-1.085-.6l-68.868-39.285a3.353 3.353 0 0 1-2.263-3.163V120.228a3.35 3.35 0 0 1 1.978-3.049l69.287-39.524q.071-.053.145-.102.093-.063.192-.12l69.904-39.873a3.4 3.4 0 0 1 1.918-.444Z" clip-rule="evenodd"/>
  <defs>
    <radialGradient id="a" cx="0" cy="0" r="1" gradientTransform="rotate(-133.804 277.714 113.06)scale(542.807 542.811)" gradientUnits="userSpaceOnUse">
      <stop stop-color="#fff"/>
      <stop offset="1" stop-color="#fff" stop-opacity="0"/>
    </radialGradient>
  </defs>
</svg>